# This file uses centimeters as units for non-parametric coordinates.

mtllib CupCosmicVision.mtl
g default
v 1.053211 -0.999905 -0.364074
v 0.895916 -0.999905 -0.672780
v 0.650921 -0.999905 -0.917778
v 0.342210 -0.999905 -1.075077
v 0.000000 -0.999905 -1.129279
v -0.342211 -0.999905 -1.075077
v -0.650921 -0.999905 -0.917778
v -0.895916 -0.999905 -0.672780
v -1.053211 -0.999905 -0.364074
v -1.107415 -0.999905 -0.021862
v -1.053211 -0.999905 0.320349
v -0.895916 -0.999905 0.629056
v -0.650921 -0.999905 0.874052
v -0.342211 -0.999905 1.031351
v -0.000000 -0.999905 1.085552
v 0.342210 -0.999905 1.031351
v 0.650921 -0.999905 0.874052
v 0.895915 -0.999905 0.629060
v 1.053211 -0.999905 0.320347
v 1.107415 -0.999905 -0.021862
v 0.484830 -0.019561 -0.157531
v 0.412421 -0.019561 -0.299642
v 0.299642 -0.019561 -0.412421
v 0.157531 -0.019561 -0.484830
v 0.000000 -0.019561 -0.509781
v -0.157531 -0.019561 -0.484830
v -0.299641 -0.019561 -0.412421
v -0.412421 -0.019561 -0.299641
v -0.484830 -0.019561 -0.157531
v -0.509780 -0.019561 0.000000
v -0.484830 -0.019561 0.157531
v -0.412421 -0.019561 0.299641
v -0.299641 -0.019561 0.412421
v -0.157531 -0.019561 0.484830
v -0.000000 -0.019561 0.509780
v 0.157531 -0.019561 0.484830
v 0.299641 -0.019561 0.412421
v 0.412421 -0.019561 0.299641
v 0.484830 -0.019561 0.157531
v 0.509780 -0.019561 0.000000
v 1.003554 -1.001862 -0.347934
v 0.853681 -1.001862 -0.642090
v 0.620231 -1.001862 -0.875543
v 0.326076 -1.001862 -1.025417
v 0.000000 -1.001862 -1.077068
v -0.326076 -1.001862 -1.025417
v -0.620231 -1.001862 -0.875543
v -0.853682 -1.001862 -0.642090
v -1.003555 -1.001862 -0.347934
v -1.055203 -1.001862 -0.021861
v -1.003555 -1.001862 0.304217
v -0.853682 -1.001862 0.598372
v -0.620231 -1.001862 0.831819
v -0.326076 -1.001862 0.981694
v -0.000000 -1.001862 1.033339
v 0.326076 -1.001862 0.981694
v 0.620231 -1.001862 0.831819
v 0.853681 -1.001862 0.598372
v 1.003554 -1.001862 0.304217
v 1.055202 -1.001862 -0.021861
v 0.489987 -0.066958 -0.159207
v 0.416809 -0.066958 -0.302827
v 0.302827 -0.066958 -0.416809
v 0.159207 -0.066958 -0.489987
v -0.000000 -0.066958 -0.515202
v -0.159207 -0.066958 -0.489987
v -0.302827 -0.066958 -0.416809
v -0.416809 -0.066958 -0.302827
v -0.489987 -0.066958 -0.159207
v -0.515202 -0.066958 -0.000000
v -0.489987 -0.066958 0.159207
v -0.416809 -0.066958 0.302827
v -0.302827 -0.066958 0.416809
v -0.159207 -0.066958 0.489987
v -0.000000 -0.066958 0.515202
v 0.159207 -0.066958 0.489987
v 0.302827 -0.066958 0.416809
v 0.416809 -0.066958 0.302827
v 0.489987 -0.066958 0.159207
v 0.515202 -0.066958 -0.000000
vt 0.250000 0.500000
vt 0.275000 0.500000
vt 0.300000 0.500000
vt 0.325000 0.500000
vt 0.350000 0.500000
vt 0.375000 0.500000
vt 0.400000 0.500000
vt 0.425000 0.500000
vt 0.450000 0.500000
vt 0.475000 0.500000
vt 0.500000 0.500000
vt 0.525000 0.500000
vt 0.550000 0.500000
vt 0.575000 0.500000
vt 0.600000 0.500000
vt 0.625000 0.500000
vt 0.650000 0.500000
vt 0.675000 0.500000
vt 0.700000 0.500000
vt 0.725000 0.500000
vt 0.750000 0.500000
vt 0.500000 0.745110
vt 0.385299 0.745110
vt 0.398044 0.745110
vt 0.410788 0.745110
vt 0.423533 0.745110
vt 0.436277 0.745110
vt 0.449022 0.745110
vt 0.461766 0.745110
vt 0.474511 0.745110
vt 0.487256 0.745110
vt 0.500000 0.745110
vt 0.512745 0.745110
vt 0.525489 0.745110
vt 0.538234 0.745110
vt 0.550978 0.745110
vt 0.563722 0.745110
vt 0.576467 0.745110
vt 0.589211 0.745110
vt 0.601956 0.745110
vt 0.614700 0.745110
vt 0.500000 0.000000
vt 1.000000 0.000000
vt 0.500000 1.000000
vt 0.500000 1.000000
vt 0.500000 0.000000
vt 0.500000 1.000000
vt 0.500000 0.000000
vt 0.500000 1.000000
vt 0.500000 0.000000
vt 0.500000 1.000000
vt 0.000000 0.000000
vt 0.500000 0.000000
vt 0.500000 1.000000
vt 0.500000 1.000000
vt 0.000000 0.000000
vt 1.000000 0.000000
vt 0.500000 1.000000
vt 0.500000 0.000000
vt 1.000000 0.000000
vt 0.500000 1.000000
vt 0.000000 0.000000
vt 0.500000 1.000000
vt 0.000000 0.000000
vt 1.000000 0.000000
vt 0.500000 1.000000
vt 0.500000 0.000000
vt 1.000000 0.000000
vt 0.500000 1.000000
vt 0.000000 0.000000
vt 0.500000 1.000000
vt 0.500000 0.000000
vt 1.000000 0.000000
vt 0.500000 1.000000
vt 0.500000 0.000000
vt 0.500000 1.000000
vt 0.500000 0.000000
vt 0.500000 1.000000
vt 0.500000 0.000000
vt 0.500000 1.000000
vt 0.500000 0.000000
vt 0.500000 1.000000
vt 0.500000 0.000000
vt 0.500000 1.000000
vt 0.500000 0.000000
vt 0.500000 1.000000
vt 0.000000 0.000000
vn 0.809053 0.524814 -0.264583
vn 0.685932 0.528624 -0.500054
vn 0.687480 0.528591 -0.497959
vn 0.810032 0.524766 -0.261664
vn 0.497043 0.531625 -0.685802
vn 0.498574 0.531607 -0.684703
vn 0.260867 0.533540 -0.804539
vn 0.261808 0.533535 -0.804237
vn 0.132710 0.529473 -0.837882
vn 0.132710 0.529473 -0.837882
vn -0.385510 0.528154 -0.756594
vn -0.497043 0.531625 -0.685801
vn -0.498575 0.531607 -0.684702
vn -0.385510 0.528154 -0.756594
vn -0.685932 0.528624 -0.500054
vn -0.687480 0.528591 -0.497959
vn -0.809053 0.524814 -0.264584
vn -0.810032 0.524767 -0.261664
vn -0.853831 0.520548 -0.001713
vn -0.853864 0.520495 0.001544
vn -0.815034 0.516235 0.263100
vn -0.814099 0.516186 0.266074
vn -0.695608 0.512305 0.503659
vn -0.694059 0.512270 0.505828
vn -0.506718 0.509162 0.695695
vn -0.505151 0.509143 0.696847
vn -0.266847 0.507133 0.819518
vn -0.265873 0.507127 0.819838
vn 0.000000 0.506431 0.862280
vn 0.000000 0.506431 0.862280
vn 0.266847 0.507132 0.819518
vn 0.265873 0.507127 0.819838
vn 0.506716 0.509162 0.695696
vn 0.505149 0.509143 0.696848
vn 0.695608 0.512306 0.503658
vn 0.694059 0.512271 0.505827
vn 0.815034 0.516234 0.263099
vn 0.814099 0.516186 0.266073
vn 0.853831 0.520547 -0.001713
vn 0.853864 0.520494 0.001545
vn 0.000000 1.000000 0.000000
vn 0.000000 1.000000 0.000000
vn 0.000000 1.000000 0.000000
vn 0.000000 1.000000 0.000000
vn 0.000000 1.000000 0.000000
vn 0.000000 1.000000 0.000000
vn 0.000000 1.000000 0.000000
vn 0.000000 1.000000 0.000000
vn 0.000000 1.000000 0.000000
vn 0.000000 1.000000 0.000000
vn 0.000000 1.000000 0.000000
vn 0.000000 1.000000 0.000000
vn 0.000000 1.000000 0.000000
vn 0.000000 1.000000 0.000000
vn 0.000000 1.000000 0.000000
vn 0.000000 1.000000 0.000000
vn 0.000000 1.000000 0.000000
vn 0.000000 1.000000 0.000000
vn 0.000000 1.000000 0.000000
vn 0.000000 1.000000 0.000000
vn 0.000000 1.000000 0.000000
vn 0.000000 1.000000 0.000000
vn 0.000000 1.000000 0.000000
vn 0.000000 1.000000 0.000000
vn 0.000000 1.000000 0.000000
vn 0.000000 1.000000 0.000000
vn 0.000000 1.000000 0.000000
vn 0.000000 1.000000 0.000000
vn 0.000000 1.000000 0.000000
vn 0.000000 1.000000 0.000000
vn 0.000000 1.000000 0.000000
vn 0.000000 1.000000 0.000000
vn 0.000000 1.000000 0.000000
vn 0.000000 1.000000 0.000000
vn 0.000000 1.000000 0.000000
vn 0.000000 1.000000 0.000000
vn -0.695495 -0.509027 0.507127
vn -0.820415 -0.504858 0.268398
vn -0.821471 -0.504803 0.265251
vn -0.697164 -0.508988 0.504869
vn -0.503928 -0.512306 0.695413
vn -0.505578 -0.512286 0.694229
vn -0.264465 -0.514397 0.815754
vn -0.265479 -0.514391 0.815428
vn 0.000000 -0.515117 0.857120
vn 0.000000 -0.515117 0.857120
vn 0.503928 -0.512306 0.695413
vn 0.264465 -0.514397 0.815754
vn 0.265479 -0.514391 0.815428
vn 0.505578 -0.512286 0.694229
vn 0.695496 -0.509027 0.507127
vn 0.697165 -0.508988 0.504869
vn 0.820415 -0.504858 0.268398
vn 0.821472 -0.504803 0.265251
vn 0.865912 -0.500193 0.001843
vn 0.865948 -0.500131 -0.001668
vn 0.826653 -0.495476 -0.266737
vn 0.825645 -0.495420 -0.269942
vn 0.705586 -0.491181 -0.510774
vn 0.703915 -0.491140 -0.513113
vn 0.514017 -0.487740 -0.705618
vn 0.512328 -0.487718 -0.706861
vn 0.270698 -0.485515 -0.831263
vn 0.269647 -0.485509 -0.831608
vn 0.000000 -0.484746 -0.874655
vn 0.000000 -0.484746 -0.874655
vn -0.270698 -0.485515 -0.831263
vn -0.269647 -0.485509 -0.831608
vn -0.514017 -0.487740 -0.705618
vn -0.512328 -0.487718 -0.706861
vn -0.705586 -0.491181 -0.510774
vn -0.703915 -0.491140 -0.513113
vn -0.826653 -0.495477 -0.266737
vn -0.825645 -0.495420 -0.269942
vn -0.865912 -0.500193 0.001842
vn -0.865948 -0.500131 -0.001669
vn -0.000000 -1.000000 0.000000
vn -0.000000 -1.000000 0.000000
vn -0.000000 -1.000000 0.000000
vn -0.000000 -1.000000 0.000000
vn 0.000000 -1.000000 0.000000
vn 0.000000 -1.000000 0.000000
vn 0.000000 -1.000000 0.000000
vn 0.000000 -1.000000 0.000000
vn -0.000000 -1.000000 0.000000
vn -0.000000 -1.000000 0.000000
vn -0.000000 -1.000000 0.000000
vn -0.000000 -1.000000 0.000000
vn 0.000000 -1.000000 0.000000
vn 0.000000 -1.000000 0.000000
vn 0.000000 -1.000000 0.000000
vn 0.000000 -1.000000 0.000000
vn -0.000001 -1.000000 0.000000
vn -0.000001 -1.000000 0.000000
vn -0.000001 -1.000000 0.000000
vn -0.000001 -1.000000 0.000000
vn -0.000000 -1.000000 0.000000
vn -0.000000 -1.000000 0.000000
vn -0.000000 -1.000000 0.000000
vn -0.000000 -1.000000 0.000000
vn 0.000000 -1.000000 -0.000000
vn 0.000000 -1.000000 -0.000000
vn 0.000000 -1.000000 -0.000000
vn 0.000000 -1.000000 -0.000000
vn 0.000001 -1.000000 -0.000000
vn 0.000001 -1.000000 -0.000000
vn 0.000001 -1.000000 -0.000000
vn 0.000001 -1.000000 -0.000000
vn 0.000000 -1.000000 0.000000
vn 0.000000 -1.000000 0.000000
vn 0.000000 -1.000000 0.000000
vn 0.000000 -1.000000 0.000000
vn 0.005934 -0.999281 -0.037459
vn 0.005934 -0.999281 -0.037459
vn 0.005934 -0.999281 -0.037459
vn 0.005934 -0.999281 -0.037459
vn 0.017219 -0.999281 -0.033793
vn 0.017219 -0.999281 -0.033793
vn 0.017219 -0.999281 -0.033793
vn 0.017219 -0.999281 -0.033793
vn 0.026820 -0.999280 -0.026820
vn 0.026820 -0.999281 -0.026820
vn 0.026820 -0.999280 -0.026820
vn 0.026820 -0.999280 -0.026820
vn 0.033794 -0.999281 -0.017219
vn 0.033794 -0.999281 -0.017219
vn 0.033794 -0.999281 -0.017219
vn 0.033794 -0.999281 -0.017219
vn 0.037459 -0.999281 -0.005933
vn 0.037459 -0.999281 -0.005933
vn 0.037459 -0.999281 -0.005933
vn 0.037459 -0.999281 -0.005933
vn -0.033795 -0.999280 -0.017218
vn -0.033795 -0.999280 -0.017218
vn -0.033795 -0.999280 -0.017218
vn -0.033795 -0.999280 -0.017218
vn -0.026822 -0.999280 -0.026821
vn -0.026822 -0.999280 -0.026821
vn -0.026822 -0.999280 -0.026821
vn -0.026822 -0.999280 -0.026821
vn -0.017219 -0.999280 -0.033796
vn -0.017219 -0.999280 -0.033796
vn -0.017219 -0.999280 -0.033796
vn -0.017219 -0.999280 -0.033796
vn -0.033796 -0.999280 0.017220
vn -0.033796 -0.999280 0.017220
vn -0.033796 -0.999280 0.017220
vn -0.033796 -0.999280 0.017220
vn -0.037459 -0.999281 0.005934
vn -0.037459 -0.999281 0.005934
vn -0.037459 -0.999281 0.005934
vn -0.037459 -0.999281 0.005934
vn -0.037459 -0.999281 -0.005934
vn -0.037459 -0.999281 -0.005934
vn -0.037459 -0.999281 -0.005934
vn -0.037459 -0.999281 -0.005934
vn -0.017220 -0.999281 0.033795
vn -0.017220 -0.999280 0.033795
vn -0.017220 -0.999280 0.033795
vn -0.017220 -0.999281 0.033795
vn -0.026821 -0.999280 0.026822
vn -0.026821 -0.999280 0.026822
vn -0.026821 -0.999280 0.026822
vn -0.026821 -0.999280 0.026822
vn 0.037461 -0.999281 0.005934
vn 0.037461 -0.999281 0.005934
vn 0.037461 -0.999281 0.005934
vn 0.037461 -0.999281 0.005934
vn 0.033797 -0.999280 0.017220
vn 0.033797 -0.999280 0.017220
vn 0.033797 -0.999280 0.017220
vn 0.033797 -0.999280 0.017220
vn 0.026822 -0.999280 0.026822
vn 0.026822 -0.999280 0.026822
vn 0.026822 -0.999280 0.026822
vn 0.026822 -0.999280 0.026822
vn 0.017220 -0.999280 0.033796
vn 0.017220 -0.999280 0.033796
vn 0.017220 -0.999280 0.033796
vn 0.017220 -0.999280 0.033796
vn 0.005933 -0.999281 0.037459
vn 0.005933 -0.999281 0.037459
vn 0.005933 -0.999281 0.037459
vn 0.005933 -0.999281 0.037459
vn -0.005933 -0.999281 0.037458
vn -0.005933 -0.999281 0.037458
vn -0.005933 -0.999281 0.037458
vn -0.005933 -0.999281 0.037458
vn -0.005934 -0.999281 -0.037459
vn -0.005934 -0.999281 -0.037459
vn -0.005934 -0.999281 -0.037459
vn -0.005934 -0.999281 -0.037459
vn -0.132709 0.529473 -0.837882
vn -0.132709 0.529473 -0.837882
vn -0.132709 0.529473 -0.837882
vn -0.132709 0.529473 -0.837882
s 1
g pCone1
usemtl initialShadingGroup
f 1/1/1 2/2/2 22/23/3 21/22/4
f 2/2/2 3/3/5 23/24/6 22/23/3
f 3/3/5 4/4/7 24/25/8 23/24/6
f 4/4/7 5/5/9 25/26/10 24/25/8
f 6/6/11 7/7/12 27/28/13 26/27/14
f 7/7/12 8/8/15 28/29/16 27/28/13
f 8/8/15 9/9/17 29/30/18 28/29/16
f 9/9/17 10/10/19 30/31/20 29/30/18
f 10/10/19 11/11/21 31/32/22 30/31/20
f 11/11/21 12/12/23 32/33/24 31/32/22
f 12/12/23 13/13/25 33/34/26 32/33/24
f 13/13/25 14/14/27 34/35/28 33/34/26
f 14/14/27 15/15/29 35/36/30 34/35/28
f 15/15/29 16/16/31 36/37/32 35/36/30
f 16/16/31 17/17/33 37/38/34 36/37/32
f 17/17/33 18/18/35 38/39/36 37/38/34
f 18/18/35 19/19/37 39/40/38 38/39/36
f 19/19/37 20/20/39 40/41/40 39/40/38
f 20/20/39 1/21/1 21/22/4 40/41/40
s off
f 23/24/41 24/25/42 33/34/43 34/35/44
f 22/23/45 23/24/46 34/35/47 35/36/48
f 21/22/49 22/23/50 35/36/51 36/37/52
f 36/37/53 37/38/54 40/41/55 21/22/56
f 37/38/57 38/39/58 39/40/59 40/41/60
f 24/25/61 25/26/62 32/33/63 33/34/64
f 25/26/65 26/27/66 31/32/67 32/33/68
f 26/27/69 27/28/70 30/31/71 31/32/72
f 27/28/73 28/29/74 29/30/75 30/31/76
s 3
f 42/42/77 41/43/78 61/44/79 62/45/80
f 43/46/81 42/42/77 62/45/80 63/47/82
f 44/48/83 43/46/81 63/47/82 64/49/84
f 45/50/85 44/48/83 64/49/84 65/51/86
f 47/52/87 46/53/88 66/54/89 67/55/90
f 48/56/91 47/57/87 67/55/90 68/58/92
f 49/59/93 48/60/91 68/58/92 69/61/94
f 50/62/95 49/59/93 69/61/94 70/63/96
f 51/64/97 50/65/95 70/63/96 71/66/98
f 52/67/99 51/68/97 71/66/98 72/69/100
f 53/70/101 52/67/99 72/69/100 73/71/102
f 54/72/103 53/73/101 73/71/102 74/74/104
f 55/75/105 54/72/103 74/74/104 75/76/106
f 56/77/107 55/75/105 75/76/106 76/78/108
f 57/79/109 56/77/107 76/78/108 77/80/110
f 58/81/111 57/79/109 77/80/110 78/82/112
f 59/83/113 58/81/111 78/82/112 79/84/114
f 60/85/115 59/83/113 79/84/114 80/86/116
f 41/87/78 60/85/115 80/86/116 61/44/79
f 46/53/88 45/50/85 65/51/86 66/54/89
s off
f 67/55/117 66/54/118 77/80/119 76/78/120
f 68/58/121 67/55/122 76/78/123 75/76/124
f 78/82/125 77/80/126 66/54/127 65/51/128
f 69/61/129 68/58/130 75/76/131 74/74/132
f 70/63/133 69/61/134 74/74/135 73/71/136
f 71/66/137 70/63/138 73/71/139 72/69/140
f 65/51/141 64/49/142 79/84/143 78/82/144
f 64/49/145 63/47/146 80/86/147 79/84/148
f 63/47/149 62/45/150 61/44/151 80/86/152
f 5/5/153 4/4/154 44/48/155 45/50/156
f 4/4/157 3/3/158 43/46/159 44/48/160
f 3/3/161 2/2/162 42/42/163 43/46/164
f 2/2/165 1/1/166 41/43/167 42/42/168
f 1/21/169 20/20/170 60/85/171 41/87/172
f 9/9/173 8/8/174 48/60/175 49/59/176
f 8/8/177 7/7/178 47/57/179 48/56/180
f 7/7/181 6/6/182 46/53/183 47/52/184
f 12/12/185 11/11/186 51/68/187 52/67/188
f 11/11/189 10/10/190 50/65/191 51/64/192
f 10/10/193 9/9/194 49/59/195 50/62/196
f 14/14/197 13/13/198 53/73/199 54/72/200
f 13/13/201 12/12/202 52/67/203 53/70/204
f 20/20/205 19/19/206 59/83/207 60/85/208
f 19/19/209 18/18/210 58/81/211 59/83/212
f 18/18/213 17/17/214 57/79/215 58/81/216
f 17/17/217 16/16/218 56/77/219 57/79/220
f 16/16/221 15/15/222 55/75/223 56/77/224
f 15/15/225 14/14/226 54/72/227 55/75/228
f 5/5/229 45/50/230 46/53/231 6/6/232
f 25/26/233 5/5/234 6/6/235 26/27/236
